<svg width="200" height="200" viewBox="0 0 200 200" fill="none" xmlns="http://www.w3.org/2000/svg">
<g clip-path="url(#clip0_251_9)">
<circle cx="100" cy="100" r="100" fill="#8F1B1C"/>
<circle cx="100" cy="100" r="50" fill="#E88720"/>
<path d="M30.4 156.16C31.5733 150.293 32.7467 144.48 33.92 138.72C35.2 132.853 36.3733 127.093 37.44 121.44C41.4933 101.173 44.8 81.76 47.36 63.2C46.1867 62.9867 44.96 62.88 43.68 62.88C42.4 62.7733 41.1733 62.7733 40 62.88C37.44 63.0933 34.9333 62.7733 32.48 61.92C32.5867 61.0667 32.64 60.16 32.64 59.2C32.64 58.1333 32.64 57.0667 32.64 56C32.64 54.8267 32.64 53.7067 32.64 52.64C32.64 51.4667 32.6933 50.3467 32.8 49.28C32.9067 48.1067 32.96 46.88 32.96 45.6C32.96 44.2133 33.0133 42.8267 33.12 41.44C35.8933 41.6533 38.6667 41.8133 41.44 41.92C44.2133 42.0267 46.9867 42.08 49.76 42.08C57.6533 42.08 65.1733 41.8133 72.32 41.28C79.5733 40.7467 86.24 40.1067 92.32 39.36L90.56 48L89.12 55.52C88.5867 58.2933 88.1067 60.48 87.68 62.08C86.5067 62.4 85.3333 62.6667 84.16 62.88C82.9867 63.0933 81.8133 63.2533 80.64 63.36C79.4667 63.4667 78.24 63.6267 76.96 63.84C75.7867 64.0533 74.6133 64.2667 73.44 64.48C71.84 72.3733 70.5067 79.2 69.44 84.96C68.48 90.72 67.5733 96.2667 66.72 101.6C65.9733 106.827 65.0667 112.587 64 118.88C62.1867 129.653 60.5867 140.587 59.2 151.68L30.4 156.16ZM122.019 156.16C119.032 156.16 115.779 155.52 112.259 154.24C108.845 152.96 105.059 150.773 100.899 147.68L111.939 123.04C112.472 124.107 113.485 125.067 114.979 125.92C116.579 126.667 118.285 127.04 120.099 127.04C121.485 127.04 122.712 125.92 123.779 123.68C124.845 121.44 125.699 118.72 126.339 115.52C127.085 112.32 127.672 109.333 128.099 106.56C128.525 103.68 128.792 101.653 128.899 100.48C129.965 95.2533 130.979 90.08 131.939 84.96C132.899 79.84 133.805 74.6667 134.659 69.44C135.512 64.32 136.472 59.2 137.539 54.08C138.712 48.96 139.885 43.84 141.059 38.72C145.859 38.2933 150.552 37.6533 155.139 36.8C159.832 35.84 164.525 34.72 169.219 33.44C167.619 38.88 165.965 45.0667 164.259 52C162.552 58.8267 160.899 65.92 159.299 73.28C157.699 80.64 156.152 87.7867 154.659 94.72C153.272 101.653 152.045 107.893 150.979 113.44C150.019 117.92 148.845 122.667 147.459 127.68C146.072 132.587 144.259 137.227 142.019 141.6C139.779 145.867 137.005 149.387 133.699 152.16C130.499 154.827 126.605 156.16 122.019 156.16Z" fill="white"/>
<path d="M96.166 129.027C92.6717 129.998 89.6299 130.207 87.0405 129.653C84.4511 129.099 82.3127 127.978 80.6254 126.288C78.9751 124.532 77.8002 122.395 77.1006 119.877C76.3867 117.308 76.2124 114.589 76.5777 111.719C76.9943 108.836 77.9262 106.114 79.3735 103.553C80.8207 100.992 82.8062 98.9735 85.3298 97.4974C83.3913 97.095 81.6055 96.3457 79.9725 95.2495C78.3252 94.102 77.2374 92.5775 76.7091 90.6762C75.7382 87.1819 75.8393 83.8603 77.0125 80.7113C78.237 77.548 80.2096 74.7858 82.9301 72.4247C85.6506 70.0635 88.8351 68.3761 92.4836 67.3624C94.8988 66.6913 97.2655 66.6426 99.5836 67.2163C101.939 67.7243 103.953 68.7976 105.626 70.4362L101.276 79.2837C100.437 78.8527 99.6771 78.5102 98.9977 78.2561C98.3553 77.9364 97.5616 77.7695 96.6167 77.7553C95.6717 77.741 94.3514 77.9695 92.6556 78.4407C90.6001 79.0118 89.2441 80.1081 88.5876 81.7297C87.9825 83.3371 87.9298 85.04 88.4295 86.8385C88.9863 88.8426 90.0227 90.3813 91.5387 91.4547C93.0405 92.4766 94.8191 92.702 96.8745 92.1309L97.6453 91.9168C97.7995 91.8739 97.9537 91.8311 98.1078 91.7883C98.2477 91.694 98.3876 91.5998 98.5275 91.5056C98.399 91.0431 98.3319 90.702 98.3261 90.4821C98.3347 90.3137 98.3175 90.1524 98.2747 89.9982C98.2319 89.8441 98.2076 89.6571 98.2019 89.4373C98.0734 88.9748 98.0063 88.6336 98.0005 88.4138C99.0283 88.1283 100.005 87.857 100.93 87.6C101.892 87.2773 102.802 86.9689 103.662 86.6748C104.521 86.3807 105.406 86.0795 106.317 85.7711C107.227 85.4627 108.164 85.1472 109.126 84.8245C109.109 85.1614 109.164 85.5611 109.293 86.0236L109.828 87.9506C110.393 87.7935 111.136 87.4766 112.055 86.9998C112.974 86.5229 113.989 85.9919 115.1 85.4065L118.132 93.0331C116.802 93.6242 115.6 94.1795 114.526 94.6992C113.439 95.1674 112.689 95.4587 112.278 95.5729C113.692 100.66 114.192 105.448 113.778 109.936C113.364 114.424 111.764 118.328 108.978 121.648C106.192 124.968 101.921 127.428 96.166 129.027ZM96.0112 118.608C97.8611 118.094 99.1543 117.071 99.8908 115.538C100.679 113.99 101.098 112.213 101.149 110.206C101.252 108.185 101.168 106.188 100.896 104.215C100.625 102.243 100.362 100.6 100.108 99.2864C95.1722 101.045 91.855 103.351 90.1565 106.203C88.4951 108.989 88.0571 111.796 88.8424 114.622C89.2993 116.266 90.1586 117.467 91.4205 118.223C92.7338 118.966 94.264 119.094 96.0112 118.608Z" fill="white"/>
</g>
<defs>
<clipPath id="clip0_251_9">
<rect width="200" height="200" fill="white"/>
</clipPath>
</defs>
</svg>
